<?xml version="1.0" encoding="UTF-8" standalone="no"?>
<!DOCTYPE svg PUBLIC "-//W3C//DTD SVG 1.1//EN"
 "http://www.w3.org/Graphics/SVG/1.1/DTD/svg11.dtd">
<!-- Generated by graphviz version 2.47.0 (20210316.0004)
 -->
<!-- Title: dependencies Pages: 1 -->
<svg width="545pt" height="211pt"
 viewBox="0.00 0.00 545.00 211.00" xmlns="http://www.w3.org/2000/svg" xmlns:xlink="http://www.w3.org/1999/xlink">
<g id="graph0" class="graph" transform="scale(1 1) rotate(0) translate(4 207)">
<title>dependencies</title>
<polygon fill="white" stroke="transparent" points="-4,4 -4,-207 541,-207 541,4 -4,4"/>
<text text-anchor="start" x="247.51" y="-42.4" font-family="Times-12" font-weight="bold" font-size="14.00">Legend</text>
<polygon fill="#ffffb3" stroke="transparent" points="34.5,-10 34.5,-30 54.5,-30 54.5,-10 34.5,-10"/>
<text text-anchor="start" x="58.13" y="-15.4" font-family="Times-12" font-size="14.00"> &#160;Declarations</text>
<polygon fill="#8dd3c7" stroke="transparent" points="147.5,-10 147.5,-30 167.5,-30 167.5,-10 147.5,-10"/>
<text text-anchor="start" x="171.23" y="-15.4" font-family="Times-12" font-size="14.00"> &#160;Module</text>
<polygon fill="#80b1d3" stroke="transparent" points="233.5,-10 233.5,-30 253.5,-30 253.5,-10 233.5,-10"/>
<text text-anchor="start" x="257.28" y="-15.4" font-family="Times-12" font-size="14.00"> &#160;Bootstrap</text>
<polygon fill="#fdb462" stroke="transparent" points="330.5,-10 330.5,-30 350.5,-30 350.5,-10 330.5,-10"/>
<text text-anchor="start" x="354.17" y="-15.4" font-family="Times-12" font-size="14.00"> &#160;Providers</text>
<polygon fill="#fb8072" stroke="transparent" points="426.5,-10 426.5,-30 446.5,-30 446.5,-10 426.5,-10"/>
<text text-anchor="start" x="450.23" y="-15.4" font-family="Times-12" font-size="14.00"> &#160;Exports</text>
<g id="clust1" class="cluster">
<title>cluster_AppModule</title>
<polygon fill="none" stroke="black" stroke-dasharray="1,5" points="8,-70 8,-195 529,-195 529,-70 8,-70"/>
</g>
<g id="clust3" class="cluster">
<title>cluster_AppModule_imports</title>
<polygon fill="none" stroke="black" points="154,-78 154,-130 521,-130 521,-78 154,-78"/>
</g>
<g id="clust6" class="cluster">
<title>cluster_AppModule_providers</title>
<polygon fill="none" stroke="black" points="16,-78 16,-130 146,-130 146,-78 16,-78"/>
</g>
<!-- AuthModule -->
<g id="node1" class="node">
<title>AuthModule</title>
<polygon fill="#8dd3c7" stroke="black" points="512.55,-122 509.55,-126 488.55,-126 485.55,-122 425.45,-122 425.45,-86 512.55,-86 512.55,-122"/>
<text text-anchor="middle" x="469" y="-99.8" font-family="Times,serif" font-size="14.00">AuthModule</text>
</g>
<!-- AppModule -->
<g id="node4" class="node">
<title>AppModule</title>
<polygon fill="#8dd3c7" stroke="black" points="323.66,-187 320.66,-191 299.66,-191 296.66,-187 240.34,-187 240.34,-151 323.66,-151 323.66,-187"/>
<text text-anchor="middle" x="282" y="-164.8" font-family="Times,serif" font-size="14.00">AppModule</text>
</g>
<!-- AuthModule&#45;&gt;AppModule -->
<g id="edge1" class="edge">
<title>AuthModule&#45;&gt;AppModule</title>
<path fill="none" stroke="black" d="M469,-122.11C469,-141.34 469,-169 469,-169 469,-169 333.97,-169 333.97,-169"/>
<polygon fill="black" stroke="black" points="333.97,-165.5 323.97,-169 333.97,-172.5 333.97,-165.5"/>
</g>
<!-- CategoriesModule -->
<g id="node2" class="node">
<title>CategoriesModule</title>
<polygon fill="#8dd3c7" stroke="black" points="407.92,-122 404.92,-126 383.92,-126 380.92,-122 288.08,-122 288.08,-86 407.92,-86 407.92,-122"/>
<text text-anchor="middle" x="348" y="-99.8" font-family="Times,serif" font-size="14.00">CategoriesModule</text>
</g>
<!-- CategoriesModule&#45;&gt;AppModule -->
<g id="edge2" class="edge">
<title>CategoriesModule&#45;&gt;AppModule</title>
<path fill="none" stroke="black" d="M306.06,-122.11C306.06,-122.11 306.06,-140.99 306.06,-140.99"/>
<polygon fill="black" stroke="black" points="302.56,-140.99 306.06,-150.99 309.56,-140.99 302.56,-140.99"/>
</g>
<!-- ProductsModule -->
<g id="node3" class="node">
<title>ProductsModule</title>
<polygon fill="#8dd3c7" stroke="black" points="270.04,-122 267.04,-126 246.04,-126 243.04,-122 161.96,-122 161.96,-86 270.04,-86 270.04,-122"/>
<text text-anchor="middle" x="216" y="-99.8" font-family="Times,serif" font-size="14.00">ProductsModule</text>
</g>
<!-- ProductsModule&#45;&gt;AppModule -->
<g id="edge3" class="edge">
<title>ProductsModule&#45;&gt;AppModule</title>
<path fill="none" stroke="black" d="M255.22,-122.11C255.22,-122.11 255.22,-140.99 255.22,-140.99"/>
<polygon fill="black" stroke="black" points="251.72,-140.99 255.22,-150.99 258.72,-140.99 251.72,-140.99"/>
</g>
<!-- AppService -->
<g id="node5" class="node">
<title>AppService</title>
<ellipse fill="#fdb462" stroke="black" cx="81" cy="-104" rx="56.74" ry="18"/>
<text text-anchor="middle" x="81" y="-99.8" font-family="Times,serif" font-size="14.00">AppService</text>
</g>
<!-- AppService&#45;&gt;AppModule -->
<g id="edge4" class="edge">
<title>AppService&#45;&gt;AppModule</title>
<path fill="none" stroke="black" d="M81,-122.11C81,-141.34 81,-169 81,-169 81,-169 229.86,-169 229.86,-169"/>
<polygon fill="black" stroke="black" points="229.86,-172.5 239.86,-169 229.86,-165.5 229.86,-172.5"/>
</g>
</g>
</svg>
