<?xml version="1.0" encoding="UTF-8" standalone="no"?>
<!DOCTYPE svg PUBLIC "-//W3C//DTD SVG 1.1//EN"
 "http://www.w3.org/Graphics/SVG/1.1/DTD/svg11.dtd">
<!-- Generated by graphviz version 2.47.0 (20210316.0004)
 -->
<!-- Title: dependencies Pages: 1 -->
<svg width="1206pt" height="287pt"
 viewBox="0.00 0.00 1206.00 287.00" xmlns="http://www.w3.org/2000/svg" xmlns:xlink="http://www.w3.org/1999/xlink">
<g id="graph0" class="graph" transform="scale(1 1) rotate(0) translate(4 283)">
<title>dependencies</title>
<polygon fill="white" stroke="transparent" points="-4,4 -4,-283 1202,-283 1202,4 -4,4"/>
<text text-anchor="start" x="578.01" y="-42.4" font-family="Times-12" font-weight="bold" font-size="14.00">Legend</text>
<polygon fill="#ffffb3" stroke="transparent" points="365,-10 365,-30 385,-30 385,-10 365,-10"/>
<text text-anchor="start" x="388.63" y="-15.4" font-family="Times-12" font-size="14.00"> &#160;Declarations</text>
<polygon fill="#8dd3c7" stroke="transparent" points="478,-10 478,-30 498,-30 498,-10 478,-10"/>
<text text-anchor="start" x="501.73" y="-15.4" font-family="Times-12" font-size="14.00"> &#160;Module</text>
<polygon fill="#80b1d3" stroke="transparent" points="564,-10 564,-30 584,-30 584,-10 564,-10"/>
<text text-anchor="start" x="587.78" y="-15.4" font-family="Times-12" font-size="14.00"> &#160;Bootstrap</text>
<polygon fill="#fdb462" stroke="transparent" points="661,-10 661,-30 681,-30 681,-10 661,-10"/>
<text text-anchor="start" x="684.67" y="-15.4" font-family="Times-12" font-size="14.00"> &#160;Providers</text>
<polygon fill="#fb8072" stroke="transparent" points="757,-10 757,-30 777,-30 777,-10 757,-10"/>
<text text-anchor="start" x="780.73" y="-15.4" font-family="Times-12" font-size="14.00"> &#160;Exports</text>
<g id="clust1" class="cluster">
<title>cluster_AppModule</title>
<polygon fill="none" stroke="black" stroke-dasharray="1,5" points="180,-146 180,-271 701,-271 701,-146 180,-146"/>
</g>
<g id="clust3" class="cluster">
<title>cluster_AppModule_imports</title>
<polygon fill="none" stroke="black" points="326,-154 326,-206 693,-206 693,-154 326,-154"/>
</g>
<g id="clust6" class="cluster">
<title>cluster_AppModule_providers</title>
<polygon fill="none" stroke="black" points="188,-154 188,-206 318,-206 318,-154 188,-154"/>
</g>
<g id="clust7" class="cluster">
<title>cluster_AuthModule</title>
<polygon fill="none" stroke="black" stroke-dasharray="1,5" points="8,-70 8,-138 424,-138 424,-70 8,-70"/>
</g>
<g id="clust12" class="cluster">
<title>cluster_AuthModule_providers</title>
<polygon fill="none" stroke="black" points="16,-78 16,-130 416,-130 416,-78 16,-78"/>
</g>
<g id="clust13" class="cluster">
<title>cluster_CategoriesModule</title>
<polygon fill="none" stroke="black" stroke-dasharray="1,5" points="432,-70 432,-138 626,-138 626,-70 432,-70"/>
</g>
<g id="clust18" class="cluster">
<title>cluster_CategoriesModule_providers</title>
<polygon fill="none" stroke="black" points="440,-78 440,-130 618,-130 618,-78 440,-78"/>
</g>
<g id="clust19" class="cluster">
<title>cluster_ProductsModule</title>
<polygon fill="none" stroke="black" stroke-dasharray="1,5" points="634,-70 634,-138 1028,-138 1028,-70 634,-70"/>
</g>
<g id="clust24" class="cluster">
<title>cluster_ProductsModule_providers</title>
<polygon fill="none" stroke="black" points="642,-78 642,-130 1020,-130 1020,-78 642,-78"/>
</g>
<g id="clust25" class="cluster">
<title>cluster_UnitsModule</title>
<polygon fill="none" stroke="black" stroke-dasharray="1,5" points="1036,-70 1036,-206 1190,-206 1190,-70 1036,-70"/>
</g>
<g id="clust30" class="cluster">
<title>cluster_UnitsModule_providers</title>
<polygon fill="none" stroke="black" points="1044,-78 1044,-130 1182,-130 1182,-78 1044,-78"/>
</g>
<!-- AuthModule -->
<g id="node1" class="node">
<title>AuthModule</title>
<polygon fill="#8dd3c7" stroke="black" points="421.55,-198 418.55,-202 397.55,-202 394.55,-198 334.45,-198 334.45,-162 421.55,-162 421.55,-198"/>
<text text-anchor="middle" x="378" y="-175.8" font-family="Times,serif" font-size="14.00">AuthModule</text>
</g>
<!-- AppModule -->
<g id="node4" class="node">
<title>AppModule</title>
<polygon fill="#8dd3c7" stroke="black" points="479.66,-263 476.66,-267 455.66,-267 452.66,-263 396.34,-263 396.34,-227 479.66,-227 479.66,-263"/>
<text text-anchor="middle" x="438" y="-240.8" font-family="Times,serif" font-size="14.00">AppModule</text>
</g>
<!-- AuthModule&#45;&gt;AppModule -->
<g id="edge1" class="edge">
<title>AuthModule&#45;&gt;AppModule</title>
<path fill="none" stroke="black" d="M408.97,-198.11C408.97,-198.11 408.97,-216.99 408.97,-216.99"/>
<polygon fill="black" stroke="black" points="405.47,-216.99 408.97,-226.99 412.47,-216.99 405.47,-216.99"/>
</g>
<!-- CategoriesModule -->
<g id="node2" class="node">
<title>CategoriesModule</title>
<polygon fill="#8dd3c7" stroke="black" points="558.92,-198 555.92,-202 534.92,-202 531.92,-198 439.08,-198 439.08,-162 558.92,-162 558.92,-198"/>
<text text-anchor="middle" x="499" y="-175.8" font-family="Times,serif" font-size="14.00">CategoriesModule</text>
</g>
<!-- CategoriesModule&#45;&gt;AppModule -->
<g id="edge2" class="edge">
<title>CategoriesModule&#45;&gt;AppModule</title>
<path fill="none" stroke="black" d="M459.56,-198.11C459.56,-198.11 459.56,-216.99 459.56,-216.99"/>
<polygon fill="black" stroke="black" points="456.06,-216.99 459.56,-226.99 463.06,-216.99 456.06,-216.99"/>
</g>
<!-- ProductsModule -->
<g id="node3" class="node">
<title>ProductsModule</title>
<polygon fill="#8dd3c7" stroke="black" points="685.04,-198 682.04,-202 661.04,-202 658.04,-198 576.96,-198 576.96,-162 685.04,-162 685.04,-198"/>
<text text-anchor="middle" x="631" y="-175.8" font-family="Times,serif" font-size="14.00">ProductsModule</text>
</g>
<!-- ProductsModule&#45;&gt;AppModule -->
<g id="edge3" class="edge">
<title>ProductsModule&#45;&gt;AppModule</title>
<path fill="none" stroke="black" d="M631,-198.11C631,-217.34 631,-245 631,-245 631,-245 489.88,-245 489.88,-245"/>
<polygon fill="black" stroke="black" points="489.88,-241.5 479.88,-245 489.88,-248.5 489.88,-241.5"/>
</g>
<!-- AppService -->
<g id="node5" class="node">
<title>AppService</title>
<ellipse fill="#fdb462" stroke="black" cx="253" cy="-180" rx="56.74" ry="18"/>
<text text-anchor="middle" x="253" y="-175.8" font-family="Times,serif" font-size="14.00">AppService</text>
</g>
<!-- AppService&#45;&gt;AppModule -->
<g id="edge4" class="edge">
<title>AppService&#45;&gt;AppModule</title>
<path fill="none" stroke="black" d="M253,-198.11C253,-217.34 253,-245 253,-245 253,-245 386.02,-245 386.02,-245"/>
<polygon fill="black" stroke="black" points="386.02,-248.5 396.02,-245 386.02,-241.5 386.02,-248.5"/>
</g>
<!-- AuthService -->
<g id="node6" class="node">
<title>AuthService</title>
<ellipse fill="#fdb462" stroke="black" cx="349" cy="-104" rx="59.11" ry="18"/>
<text text-anchor="middle" x="349" y="-99.8" font-family="Times,serif" font-size="14.00">AuthService</text>
</g>
<!-- AuthService&#45;&gt;AuthModule -->
<g id="edge5" class="edge">
<title>AuthService&#45;&gt;AuthModule</title>
<path fill="none" stroke="black" d="M389.78,-117.24C389.78,-117.24 389.78,-151.79 389.78,-151.79"/>
<polygon fill="black" stroke="black" points="386.28,-151.79 389.78,-161.79 393.28,-151.79 386.28,-151.79"/>
</g>
<!-- JwtStrategy -->
<g id="node7" class="node">
<title>JwtStrategy</title>
<ellipse fill="#fdb462" stroke="black" cx="215" cy="-104" rx="56.76" ry="18"/>
<text text-anchor="middle" x="215" y="-99.8" font-family="Times,serif" font-size="14.00">JwtStrategy</text>
</g>
<!-- JwtStrategy&#45;&gt;AuthModule -->
<g id="edge6" class="edge">
<title>JwtStrategy&#45;&gt;AuthModule</title>
<path fill="none" stroke="black" d="M234,-121.12C234,-128.73 234,-136 234,-136 234,-136 371.27,-136 371.27,-136 371.27,-136 371.27,-151.85 371.27,-151.85"/>
<polygon fill="black" stroke="black" points="367.77,-151.85 371.27,-161.85 374.77,-151.85 367.77,-151.85"/>
</g>
<!-- RoleService -->
<g id="node8" class="node">
<title>RoleService</title>
<ellipse fill="#fdb462" stroke="black" cx="82" cy="-104" rx="58.46" ry="18"/>
<text text-anchor="middle" x="82" y="-99.8" font-family="Times,serif" font-size="14.00">RoleService</text>
</g>
<!-- RoleService&#45;&gt;AuthModule -->
<g id="edge7" class="edge">
<title>RoleService&#45;&gt;AuthModule</title>
<path fill="none" stroke="black" d="M82,-122.04C82,-134.56 82,-149 82,-149 82,-149 352.75,-149 352.75,-149 352.75,-149 352.75,-151.97 352.75,-151.97"/>
<polygon fill="black" stroke="black" points="349.25,-151.97 352.75,-161.97 356.25,-151.97 349.25,-151.97"/>
</g>
<!-- CategoriesService -->
<g id="node9" class="node">
<title>CategoriesService</title>
<ellipse fill="#fdb462" stroke="black" cx="529" cy="-104" rx="81.07" ry="18"/>
<text text-anchor="middle" x="529" y="-99.8" font-family="Times,serif" font-size="14.00">CategoriesService</text>
</g>
<!-- CategoriesService&#45;&gt;CategoriesModule -->
<g id="edge8" class="edge">
<title>CategoriesService&#45;&gt;CategoriesModule</title>
<path fill="none" stroke="black" d="M503.21,-121.25C503.21,-121.25 503.21,-151.76 503.21,-151.76"/>
<polygon fill="black" stroke="black" points="499.71,-151.76 503.21,-161.76 506.71,-151.76 499.71,-151.76"/>
</g>
<!-- ProductImagesService -->
<g id="node10" class="node">
<title>ProductImagesService</title>
<ellipse fill="#fdb462" stroke="black" cx="914" cy="-104" rx="97.83" ry="18"/>
<text text-anchor="middle" x="914" y="-99.8" font-family="Times,serif" font-size="14.00">ProductImagesService</text>
</g>
<!-- ProductImagesService&#45;&gt;ProductsModule -->
<g id="edge9" class="edge">
<title>ProductImagesService&#45;&gt;ProductsModule</title>
<path fill="none" stroke="black" d="M914,-122.01C914,-144.49 914,-180 914,-180 914,-180 695.23,-180 695.23,-180"/>
<polygon fill="black" stroke="black" points="695.23,-176.5 685.23,-180 695.23,-183.5 695.23,-176.5"/>
</g>
<!-- ProductsService -->
<g id="node11" class="node">
<title>ProductsService</title>
<ellipse fill="#fdb462" stroke="black" cx="724" cy="-104" rx="73.57" ry="18"/>
<text text-anchor="middle" x="724" y="-99.8" font-family="Times,serif" font-size="14.00">ProductsService</text>
</g>
<!-- ProductsService&#45;&gt;ProductsModule -->
<g id="edge10" class="edge">
<title>ProductsService&#45;&gt;ProductsModule</title>
<path fill="none" stroke="black" d="M667.74,-115.88C667.74,-115.88 667.74,-151.99 667.74,-151.99"/>
<polygon fill="black" stroke="black" points="664.24,-151.99 667.74,-161.99 671.24,-151.99 664.24,-151.99"/>
</g>
<!-- UnitsService -->
<g id="node12" class="node">
<title>UnitsService</title>
<ellipse fill="#fdb462" stroke="black" cx="1113" cy="-104" rx="60.83" ry="18"/>
<text text-anchor="middle" x="1113" y="-99.8" font-family="Times,serif" font-size="14.00">UnitsService</text>
</g>
<!-- UnitsModule -->
<g id="node13" class="node">
<title>UnitsModule</title>
<polygon fill="#8dd3c7" stroke="black" points="1157.88,-198 1154.88,-202 1133.88,-202 1130.88,-198 1068.12,-198 1068.12,-162 1157.88,-162 1157.88,-198"/>
<text text-anchor="middle" x="1113" y="-175.8" font-family="Times,serif" font-size="14.00">UnitsModule</text>
</g>
<!-- UnitsService&#45;&gt;UnitsModule -->
<g id="edge11" class="edge">
<title>UnitsService&#45;&gt;UnitsModule</title>
<path fill="none" stroke="black" d="M1113,-122.01C1113,-122.01 1113,-151.85 1113,-151.85"/>
<polygon fill="black" stroke="black" points="1109.5,-151.85 1113,-161.85 1116.5,-151.85 1109.5,-151.85"/>
</g>
</g>
</svg>
