<?xml version="1.0" encoding="UTF-8" standalone="no"?>
<!DOCTYPE svg PUBLIC "-//W3C//DTD SVG 1.1//EN"
 "http://www.w3.org/Graphics/SVG/1.1/DTD/svg11.dtd">
<!-- Generated by graphviz version 2.47.0 (20210316.0004)
 -->
<!-- Title: dependencies Pages: 1 -->
<svg width="910pt" height="287pt"
 viewBox="0.00 0.00 910.00 287.00" xmlns="http://www.w3.org/2000/svg" xmlns:xlink="http://www.w3.org/1999/xlink">
<g id="graph0" class="graph" transform="scale(1 1) rotate(0) translate(4 283)">
<title>dependencies</title>
<polygon fill="white" stroke="transparent" points="-4,4 -4,-283 906,-283 906,4 -4,4"/>
<text text-anchor="start" x="430.01" y="-42.4" font-family="Times-12" font-weight="bold" font-size="14.00">Legend</text>
<polygon fill="#ffffb3" stroke="transparent" points="217,-10 217,-30 237,-30 237,-10 217,-10"/>
<text text-anchor="start" x="240.63" y="-15.4" font-family="Times-12" font-size="14.00"> &#160;Declarations</text>
<polygon fill="#8dd3c7" stroke="transparent" points="330,-10 330,-30 350,-30 350,-10 330,-10"/>
<text text-anchor="start" x="353.73" y="-15.4" font-family="Times-12" font-size="14.00"> &#160;Module</text>
<polygon fill="#80b1d3" stroke="transparent" points="416,-10 416,-30 436,-30 436,-10 416,-10"/>
<text text-anchor="start" x="439.78" y="-15.4" font-family="Times-12" font-size="14.00"> &#160;Bootstrap</text>
<polygon fill="#fdb462" stroke="transparent" points="513,-10 513,-30 533,-30 533,-10 513,-10"/>
<text text-anchor="start" x="536.67" y="-15.4" font-family="Times-12" font-size="14.00"> &#160;Providers</text>
<polygon fill="#fb8072" stroke="transparent" points="609,-10 609,-30 629,-30 629,-10 609,-10"/>
<text text-anchor="start" x="632.73" y="-15.4" font-family="Times-12" font-size="14.00"> &#160;Exports</text>
<g id="clust1" class="cluster">
<title>cluster_AppModule</title>
<polygon fill="none" stroke="black" stroke-dasharray="1,5" points="76,-146 76,-271 597,-271 597,-146 76,-146"/>
</g>
<g id="clust3" class="cluster">
<title>cluster_AppModule_imports</title>
<polygon fill="none" stroke="black" points="222,-154 222,-206 589,-206 589,-154 222,-154"/>
</g>
<g id="clust6" class="cluster">
<title>cluster_AppModule_providers</title>
<polygon fill="none" stroke="black" points="84,-154 84,-206 214,-206 214,-154 84,-154"/>
</g>
<g id="clust7" class="cluster">
<title>cluster_AuthModule</title>
<polygon fill="none" stroke="black" stroke-dasharray="1,5" points="8,-70 8,-138 290,-138 290,-70 8,-70"/>
</g>
<g id="clust12" class="cluster">
<title>cluster_AuthModule_providers</title>
<polygon fill="none" stroke="black" points="16,-78 16,-130 282,-130 282,-78 16,-78"/>
</g>
<g id="clust13" class="cluster">
<title>cluster_CategoriesModule</title>
<polygon fill="none" stroke="black" stroke-dasharray="1,5" points="298,-70 298,-138 492,-138 492,-70 298,-70"/>
</g>
<g id="clust18" class="cluster">
<title>cluster_CategoriesModule_providers</title>
<polygon fill="none" stroke="black" points="306,-78 306,-130 484,-130 484,-78 306,-78"/>
</g>
<g id="clust19" class="cluster">
<title>cluster_ProductsModule</title>
<polygon fill="none" stroke="black" stroke-dasharray="1,5" points="500,-70 500,-138 894,-138 894,-70 500,-70"/>
</g>
<g id="clust24" class="cluster">
<title>cluster_ProductsModule_providers</title>
<polygon fill="none" stroke="black" points="508,-78 508,-130 886,-130 886,-78 508,-78"/>
</g>
<!-- AuthModule -->
<g id="node1" class="node">
<title>AuthModule</title>
<polygon fill="#8dd3c7" stroke="black" points="317.55,-198 314.55,-202 293.55,-202 290.55,-198 230.45,-198 230.45,-162 317.55,-162 317.55,-198"/>
<text text-anchor="middle" x="274" y="-175.8" font-family="Times,serif" font-size="14.00">AuthModule</text>
</g>
<!-- AppModule -->
<g id="node4" class="node">
<title>AppModule</title>
<polygon fill="#8dd3c7" stroke="black" points="375.66,-263 372.66,-267 351.66,-267 348.66,-263 292.34,-263 292.34,-227 375.66,-227 375.66,-263"/>
<text text-anchor="middle" x="334" y="-240.8" font-family="Times,serif" font-size="14.00">AppModule</text>
</g>
<!-- AuthModule&#45;&gt;AppModule -->
<g id="edge1" class="edge">
<title>AuthModule&#45;&gt;AppModule</title>
<path fill="none" stroke="black" d="M304.97,-198.11C304.97,-198.11 304.97,-216.99 304.97,-216.99"/>
<polygon fill="black" stroke="black" points="301.47,-216.99 304.97,-226.99 308.47,-216.99 301.47,-216.99"/>
</g>
<!-- CategoriesModule -->
<g id="node2" class="node">
<title>CategoriesModule</title>
<polygon fill="#8dd3c7" stroke="black" points="454.92,-198 451.92,-202 430.92,-202 427.92,-198 335.08,-198 335.08,-162 454.92,-162 454.92,-198"/>
<text text-anchor="middle" x="395" y="-175.8" font-family="Times,serif" font-size="14.00">CategoriesModule</text>
</g>
<!-- CategoriesModule&#45;&gt;AppModule -->
<g id="edge2" class="edge">
<title>CategoriesModule&#45;&gt;AppModule</title>
<path fill="none" stroke="black" d="M355.56,-198.11C355.56,-198.11 355.56,-216.99 355.56,-216.99"/>
<polygon fill="black" stroke="black" points="352.06,-216.99 355.56,-226.99 359.06,-216.99 352.06,-216.99"/>
</g>
<!-- ProductsModule -->
<g id="node3" class="node">
<title>ProductsModule</title>
<polygon fill="#8dd3c7" stroke="black" points="581.04,-198 578.04,-202 557.04,-202 554.04,-198 472.96,-198 472.96,-162 581.04,-162 581.04,-198"/>
<text text-anchor="middle" x="527" y="-175.8" font-family="Times,serif" font-size="14.00">ProductsModule</text>
</g>
<!-- ProductsModule&#45;&gt;AppModule -->
<g id="edge3" class="edge">
<title>ProductsModule&#45;&gt;AppModule</title>
<path fill="none" stroke="black" d="M527,-198.11C527,-217.34 527,-245 527,-245 527,-245 385.88,-245 385.88,-245"/>
<polygon fill="black" stroke="black" points="385.88,-241.5 375.88,-245 385.88,-248.5 385.88,-241.5"/>
</g>
<!-- AppService -->
<g id="node5" class="node">
<title>AppService</title>
<ellipse fill="#fdb462" stroke="black" cx="149" cy="-180" rx="56.74" ry="18"/>
<text text-anchor="middle" x="149" y="-175.8" font-family="Times,serif" font-size="14.00">AppService</text>
</g>
<!-- AppService&#45;&gt;AppModule -->
<g id="edge4" class="edge">
<title>AppService&#45;&gt;AppModule</title>
<path fill="none" stroke="black" d="M149,-198.11C149,-217.34 149,-245 149,-245 149,-245 282.02,-245 282.02,-245"/>
<polygon fill="black" stroke="black" points="282.02,-248.5 292.02,-245 282.02,-241.5 282.02,-248.5"/>
</g>
<!-- AuthService -->
<g id="node6" class="node">
<title>AuthService</title>
<ellipse fill="#fdb462" stroke="black" cx="215" cy="-104" rx="59.11" ry="18"/>
<text text-anchor="middle" x="215" y="-99.8" font-family="Times,serif" font-size="14.00">AuthService</text>
</g>
<!-- AuthService&#45;&gt;AuthModule -->
<g id="edge5" class="edge">
<title>AuthService&#45;&gt;AuthModule</title>
<path fill="none" stroke="black" d="M259.61,-115.88C259.61,-115.88 259.61,-151.99 259.61,-151.99"/>
<polygon fill="black" stroke="black" points="256.11,-151.99 259.61,-161.99 263.11,-151.99 256.11,-151.99"/>
</g>
<!-- JwtStrategy -->
<g id="node7" class="node">
<title>JwtStrategy</title>
<ellipse fill="#fdb462" stroke="black" cx="81" cy="-104" rx="56.76" ry="18"/>
<text text-anchor="middle" x="81" y="-99.8" font-family="Times,serif" font-size="14.00">JwtStrategy</text>
</g>
<!-- JwtStrategy&#45;&gt;AuthModule -->
<g id="edge6" class="edge">
<title>JwtStrategy&#45;&gt;AuthModule</title>
<path fill="none" stroke="black" d="M115,-118.58C115,-129.3 115,-142 115,-142 115,-142 244.92,-142 244.92,-142 244.92,-142 244.92,-151.89 244.92,-151.89"/>
<polygon fill="black" stroke="black" points="241.42,-151.89 244.92,-161.89 248.42,-151.89 241.42,-151.89"/>
</g>
<!-- CategoriesService -->
<g id="node8" class="node">
<title>CategoriesService</title>
<ellipse fill="#fdb462" stroke="black" cx="395" cy="-104" rx="81.07" ry="18"/>
<text text-anchor="middle" x="395" y="-99.8" font-family="Times,serif" font-size="14.00">CategoriesService</text>
</g>
<!-- CategoriesService&#45;&gt;CategoriesModule -->
<g id="edge7" class="edge">
<title>CategoriesService&#45;&gt;CategoriesModule</title>
<path fill="none" stroke="black" d="M395,-122.01C395,-122.01 395,-151.85 395,-151.85"/>
<polygon fill="black" stroke="black" points="391.5,-151.85 395,-161.85 398.5,-151.85 391.5,-151.85"/>
</g>
<!-- ProductImagesService -->
<g id="node9" class="node">
<title>ProductImagesService</title>
<ellipse fill="#fdb462" stroke="black" cx="780" cy="-104" rx="97.83" ry="18"/>
<text text-anchor="middle" x="780" y="-99.8" font-family="Times,serif" font-size="14.00">ProductImagesService</text>
</g>
<!-- ProductImagesService&#45;&gt;ProductsModule -->
<g id="edge8" class="edge">
<title>ProductImagesService&#45;&gt;ProductsModule</title>
<path fill="none" stroke="black" d="M780,-122.01C780,-144.49 780,-180 780,-180 780,-180 591.27,-180 591.27,-180"/>
<polygon fill="black" stroke="black" points="591.27,-176.5 581.27,-180 591.27,-183.5 591.27,-176.5"/>
</g>
<!-- ProductsService -->
<g id="node10" class="node">
<title>ProductsService</title>
<ellipse fill="#fdb462" stroke="black" cx="590" cy="-104" rx="73.57" ry="18"/>
<text text-anchor="middle" x="590" y="-99.8" font-family="Times,serif" font-size="14.00">ProductsService</text>
</g>
<!-- ProductsService&#45;&gt;ProductsModule -->
<g id="edge9" class="edge">
<title>ProductsService&#45;&gt;ProductsModule</title>
<path fill="none" stroke="black" d="M548.74,-119.02C548.74,-119.02 548.74,-151.8 548.74,-151.8"/>
<polygon fill="black" stroke="black" points="545.24,-151.8 548.74,-161.8 552.24,-151.8 545.24,-151.8"/>
</g>
</g>
</svg>
